<?xml version="1.0" encoding="UTF-8"?>
<svg xmlns="http://www.w3.org/2000/svg" xmlns:xlink="http://www.w3.org/1999/xlink" width="150px" height="150px" viewBox="0 0 150 150" version="1.1">
<g id="surface1">
<path style=" stroke:none;fill-rule:nonzero;fill:rgb(9.411765%,43.921569%,68.235296%);fill-opacity:1;" d="M 6.875 44.875 L 11.625 44.875 L 11.625 49.625 L 6.875 49.625 Z M 6.875 44.875 "/>
<path style=" stroke:none;fill-rule:nonzero;fill:rgb(9.411765%,43.921569%,68.235296%);fill-opacity:1;" d="M 6.875 49.625 L 11.625 49.625 L 11.625 54.375 L 6.875 54.375 Z M 6.875 49.625 "/>
<path style=" stroke:none;fill-rule:nonzero;fill:rgb(9.411765%,43.921569%,68.235296%);fill-opacity:1;" d="M 6.875 59.125 L 11.625 59.125 L 11.625 63.875 L 6.875 63.875 Z M 6.875 59.125 "/>
<path style=" stroke:none;fill-rule:nonzero;fill:rgb(9.411765%,43.921569%,68.235296%);fill-opacity:1;" d="M 6.875 78.125 L 11.625 78.125 L 11.625 82.875 L 6.875 82.875 Z M 6.875 78.125 "/>
<path style=" stroke:none;fill-rule:nonzero;fill:rgb(9.411765%,43.921569%,68.235296%);fill-opacity:1;" d="M 6.875 87.625 L 11.625 87.625 L 11.625 92.375 L 6.875 92.375 Z M 6.875 87.625 "/>
<path style=" stroke:none;fill-rule:nonzero;fill:rgb(9.411765%,43.921569%,68.235296%);fill-opacity:1;" d="M 6.875 92.375 L 11.625 92.375 L 11.625 97.125 L 6.875 97.125 Z M 6.875 92.375 "/>
<path style=" stroke:none;fill-rule:nonzero;fill:rgb(9.411765%,43.921569%,68.235296%);fill-opacity:1;" d="M 6.875 97.125 L 11.625 97.125 L 11.625 101.875 L 6.875 101.875 Z M 6.875 97.125 "/>
<path style=" stroke:none;fill-rule:nonzero;fill:rgb(9.411765%,43.921569%,68.235296%);fill-opacity:1;" d="M 6.875 101.875 L 11.625 101.875 L 11.625 106.625 L 6.875 106.625 Z M 6.875 101.875 "/>
<path style=" stroke:none;fill-rule:nonzero;fill:rgb(9.411765%,43.921569%,68.235296%);fill-opacity:1;" d="M 11.625 73.375 L 16.375 73.375 L 16.375 78.125 L 11.625 78.125 Z M 11.625 73.375 "/>
<path style=" stroke:none;fill-rule:nonzero;fill:rgb(9.411765%,43.921569%,68.235296%);fill-opacity:1;" d="M 16.375 49.625 L 21.125 49.625 L 21.125 54.375 L 16.375 54.375 Z M 16.375 49.625 "/>
<path style=" stroke:none;fill-rule:nonzero;fill:rgb(9.411765%,43.921569%,68.235296%);fill-opacity:1;" d="M 16.375 54.375 L 21.125 54.375 L 21.125 59.125 L 16.375 59.125 Z M 16.375 54.375 "/>
<path style=" stroke:none;fill-rule:nonzero;fill:rgb(9.411765%,43.921569%,68.235296%);fill-opacity:1;" d="M 16.375 59.125 L 21.125 59.125 L 21.125 63.875 L 16.375 63.875 Z M 16.375 59.125 "/>
<path style=" stroke:none;fill-rule:nonzero;fill:rgb(9.411765%,43.921569%,68.235296%);fill-opacity:1;" d="M 16.375 63.875 L 21.125 63.875 L 21.125 68.625 L 16.375 68.625 Z M 16.375 63.875 "/>
<path style=" stroke:none;fill-rule:nonzero;fill:rgb(9.411765%,43.921569%,68.235296%);fill-opacity:1;" d="M 16.375 73.375 L 21.125 73.375 L 21.125 78.125 L 16.375 78.125 Z M 16.375 73.375 "/>
<path style=" stroke:none;fill-rule:nonzero;fill:rgb(9.411765%,43.921569%,68.235296%);fill-opacity:1;" d="M 16.375 78.125 L 21.125 78.125 L 21.125 82.875 L 16.375 82.875 Z M 16.375 78.125 "/>
<path style=" stroke:none;fill-rule:nonzero;fill:rgb(9.411765%,43.921569%,68.235296%);fill-opacity:1;" d="M 16.375 82.875 L 21.125 82.875 L 21.125 87.625 L 16.375 87.625 Z M 16.375 82.875 "/>
<path style=" stroke:none;fill-rule:nonzero;fill:rgb(9.411765%,43.921569%,68.235296%);fill-opacity:1;" d="M 16.375 97.125 L 21.125 97.125 L 21.125 101.875 L 16.375 101.875 Z M 16.375 97.125 "/>
<path style=" stroke:none;fill-rule:nonzero;fill:rgb(9.411765%,43.921569%,68.235296%);fill-opacity:1;" d="M 21.125 63.875 L 25.875 63.875 L 25.875 68.625 L 21.125 68.625 Z M 21.125 63.875 "/>
<path style=" stroke:none;fill-rule:nonzero;fill:rgb(9.411765%,43.921569%,68.235296%);fill-opacity:1;" d="M 21.125 68.625 L 25.875 68.625 L 25.875 73.375 L 21.125 73.375 Z M 21.125 68.625 "/>
<path style=" stroke:none;fill-rule:nonzero;fill:rgb(9.411765%,43.921569%,68.235296%);fill-opacity:1;" d="M 21.125 78.125 L 25.875 78.125 L 25.875 82.875 L 21.125 82.875 Z M 21.125 78.125 "/>
<path style=" stroke:none;fill-rule:nonzero;fill:rgb(9.411765%,43.921569%,68.235296%);fill-opacity:1;" d="M 21.125 87.625 L 25.875 87.625 L 25.875 92.375 L 21.125 92.375 Z M 21.125 87.625 "/>
<path style=" stroke:none;fill-rule:nonzero;fill:rgb(9.411765%,43.921569%,68.235296%);fill-opacity:1;" d="M 25.875 44.875 L 30.625 44.875 L 30.625 49.625 L 25.875 49.625 Z M 25.875 44.875 "/>
<path style=" stroke:none;fill-rule:nonzero;fill:rgb(9.411765%,43.921569%,68.235296%);fill-opacity:1;" d="M 25.875 49.625 L 30.625 49.625 L 30.625 54.375 L 25.875 54.375 Z M 25.875 49.625 "/>
<path style=" stroke:none;fill-rule:nonzero;fill:rgb(9.411765%,43.921569%,68.235296%);fill-opacity:1;" d="M 25.875 73.375 L 30.625 73.375 L 30.625 78.125 L 25.875 78.125 Z M 25.875 73.375 "/>
<path style=" stroke:none;fill-rule:nonzero;fill:rgb(9.411765%,43.921569%,68.235296%);fill-opacity:1;" d="M 25.875 92.375 L 30.625 92.375 L 30.625 97.125 L 25.875 97.125 Z M 25.875 92.375 "/>
<path style=" stroke:none;fill-rule:nonzero;fill:rgb(9.411765%,43.921569%,68.235296%);fill-opacity:1;" d="M 25.875 97.125 L 30.625 97.125 L 30.625 101.875 L 25.875 101.875 Z M 25.875 97.125 "/>
<path style=" stroke:none;fill-rule:nonzero;fill:rgb(9.411765%,43.921569%,68.235296%);fill-opacity:1;" d="M 25.875 101.875 L 30.625 101.875 L 30.625 106.625 L 25.875 106.625 Z M 25.875 101.875 "/>
<path style=" stroke:none;fill-rule:nonzero;fill:rgb(9.411765%,43.921569%,68.235296%);fill-opacity:1;" d="M 30.625 44.875 L 35.375 44.875 L 35.375 49.625 L 30.625 49.625 Z M 30.625 44.875 "/>
<path style=" stroke:none;fill-rule:nonzero;fill:rgb(9.411765%,43.921569%,68.235296%);fill-opacity:1;" d="M 30.625 59.125 L 35.375 59.125 L 35.375 63.875 L 30.625 63.875 Z M 30.625 59.125 "/>
<path style=" stroke:none;fill-rule:nonzero;fill:rgb(9.411765%,43.921569%,68.235296%);fill-opacity:1;" d="M 30.625 78.125 L 35.375 78.125 L 35.375 82.875 L 30.625 82.875 Z M 30.625 78.125 "/>
<path style=" stroke:none;fill-rule:nonzero;fill:rgb(9.411765%,43.921569%,68.235296%);fill-opacity:1;" d="M 30.625 87.625 L 35.375 87.625 L 35.375 92.375 L 30.625 92.375 Z M 30.625 87.625 "/>
<path style=" stroke:none;fill-rule:nonzero;fill:rgb(9.411765%,43.921569%,68.235296%);fill-opacity:1;" d="M 35.375 44.875 L 40.125 44.875 L 40.125 49.625 L 35.375 49.625 Z M 35.375 44.875 "/>
<path style=" stroke:none;fill-rule:nonzero;fill:rgb(9.411765%,43.921569%,68.235296%);fill-opacity:1;" d="M 35.375 54.375 L 40.125 54.375 L 40.125 59.125 L 35.375 59.125 Z M 35.375 54.375 "/>
<path style=" stroke:none;fill-rule:nonzero;fill:rgb(9.411765%,43.921569%,68.235296%);fill-opacity:1;" d="M 35.375 63.875 L 40.125 63.875 L 40.125 68.625 L 35.375 68.625 Z M 35.375 63.875 "/>
<path style=" stroke:none;fill-rule:nonzero;fill:rgb(9.411765%,43.921569%,68.235296%);fill-opacity:1;" d="M 35.375 73.375 L 40.125 73.375 L 40.125 78.125 L 35.375 78.125 Z M 35.375 73.375 "/>
<path style=" stroke:none;fill-rule:nonzero;fill:rgb(9.411765%,43.921569%,68.235296%);fill-opacity:1;" d="M 35.375 82.875 L 40.125 82.875 L 40.125 87.625 L 35.375 87.625 Z M 35.375 82.875 "/>
<path style=" stroke:none;fill-rule:nonzero;fill:rgb(9.411765%,43.921569%,68.235296%);fill-opacity:1;" d="M 35.375 92.375 L 40.125 92.375 L 40.125 97.125 L 35.375 97.125 Z M 35.375 92.375 "/>
<path style=" stroke:none;fill-rule:nonzero;fill:rgb(9.411765%,43.921569%,68.235296%);fill-opacity:1;" d="M 35.375 101.875 L 40.125 101.875 L 40.125 106.625 L 35.375 106.625 Z M 35.375 101.875 "/>
<path style=" stroke:none;fill-rule:nonzero;fill:rgb(9.411765%,43.921569%,68.235296%);fill-opacity:1;" d="M 40.125 63.875 L 44.875 63.875 L 44.875 68.625 L 40.125 68.625 Z M 40.125 63.875 "/>
<path style=" stroke:none;fill-rule:nonzero;fill:rgb(9.411765%,43.921569%,68.235296%);fill-opacity:1;" d="M 40.125 97.125 L 44.875 97.125 L 44.875 101.875 L 40.125 101.875 Z M 40.125 97.125 "/>
<path style=" stroke:none;fill-rule:nonzero;fill:rgb(9.411765%,43.921569%,68.235296%);fill-opacity:1;" d="M 40.125 101.875 L 44.875 101.875 L 44.875 106.625 L 40.125 106.625 Z M 40.125 101.875 "/>
<path style=" stroke:none;fill-rule:nonzero;fill:rgb(9.411765%,43.921569%,68.235296%);fill-opacity:1;" d="M 44.875 11.625 L 49.625 11.625 L 49.625 16.375 L 44.875 16.375 Z M 44.875 11.625 "/>
<path style=" stroke:none;fill-rule:nonzero;fill:rgb(9.411765%,43.921569%,68.235296%);fill-opacity:1;" d="M 44.875 16.375 L 49.625 16.375 L 49.625 21.125 L 44.875 21.125 Z M 44.875 16.375 "/>
<path style=" stroke:none;fill-rule:nonzero;fill:rgb(9.411765%,43.921569%,68.235296%);fill-opacity:1;" d="M 44.875 21.125 L 49.625 21.125 L 49.625 25.875 L 44.875 25.875 Z M 44.875 21.125 "/>
<path style=" stroke:none;fill-rule:nonzero;fill:rgb(9.411765%,43.921569%,68.235296%);fill-opacity:1;" d="M 44.875 25.875 L 49.625 25.875 L 49.625 30.625 L 44.875 30.625 Z M 44.875 25.875 "/>
<path style=" stroke:none;fill-rule:nonzero;fill:rgb(9.411765%,43.921569%,68.235296%);fill-opacity:1;" d="M 44.875 30.625 L 49.625 30.625 L 49.625 35.375 L 44.875 35.375 Z M 44.875 30.625 "/>
<path style=" stroke:none;fill-rule:nonzero;fill:rgb(9.411765%,43.921569%,68.235296%);fill-opacity:1;" d="M 44.875 35.375 L 49.625 35.375 L 49.625 40.125 L 44.875 40.125 Z M 44.875 35.375 "/>
<path style=" stroke:none;fill-rule:nonzero;fill:rgb(9.411765%,43.921569%,68.235296%);fill-opacity:1;" d="M 44.875 40.125 L 49.625 40.125 L 49.625 44.875 L 44.875 44.875 Z M 44.875 40.125 "/>
<path style=" stroke:none;fill-rule:nonzero;fill:rgb(9.411765%,43.921569%,68.235296%);fill-opacity:1;" d="M 44.875 49.625 L 49.625 49.625 L 49.625 54.375 L 44.875 54.375 Z M 44.875 49.625 "/>
<path style=" stroke:none;fill-rule:nonzero;fill:rgb(9.411765%,43.921569%,68.235296%);fill-opacity:1;" d="M 44.875 54.375 L 49.625 54.375 L 49.625 59.125 L 44.875 59.125 Z M 44.875 54.375 "/>
<path style=" stroke:none;fill-rule:nonzero;fill:rgb(9.411765%,43.921569%,68.235296%);fill-opacity:1;" d="M 44.875 63.875 L 49.625 63.875 L 49.625 68.625 L 44.875 68.625 Z M 44.875 63.875 "/>
<path style=" stroke:none;fill-rule:nonzero;fill:rgb(9.411765%,43.921569%,68.235296%);fill-opacity:1;" d="M 44.875 68.625 L 49.625 68.625 L 49.625 73.375 L 44.875 73.375 Z M 44.875 68.625 "/>
<path style=" stroke:none;fill-rule:nonzero;fill:rgb(9.411765%,43.921569%,68.235296%);fill-opacity:1;" d="M 44.875 73.375 L 49.625 73.375 L 49.625 78.125 L 44.875 78.125 Z M 44.875 73.375 "/>
<path style=" stroke:none;fill-rule:nonzero;fill:rgb(9.411765%,43.921569%,68.235296%);fill-opacity:1;" d="M 44.875 78.125 L 49.625 78.125 L 49.625 82.875 L 44.875 82.875 Z M 44.875 78.125 "/>
<path style=" stroke:none;fill-rule:nonzero;fill:rgb(9.411765%,43.921569%,68.235296%);fill-opacity:1;" d="M 44.875 82.875 L 49.625 82.875 L 49.625 87.625 L 44.875 87.625 Z M 44.875 82.875 "/>
<path style=" stroke:none;fill-rule:nonzero;fill:rgb(9.411765%,43.921569%,68.235296%);fill-opacity:1;" d="M 44.875 92.375 L 49.625 92.375 L 49.625 97.125 L 44.875 97.125 Z M 44.875 92.375 "/>
<path style=" stroke:none;fill-rule:nonzero;fill:rgb(9.411765%,43.921569%,68.235296%);fill-opacity:1;" d="M 44.875 97.125 L 49.625 97.125 L 49.625 101.875 L 44.875 101.875 Z M 44.875 97.125 "/>
<path style=" stroke:none;fill-rule:nonzero;fill:rgb(9.411765%,43.921569%,68.235296%);fill-opacity:1;" d="M 44.875 101.875 L 49.625 101.875 L 49.625 106.625 L 44.875 106.625 Z M 44.875 101.875 "/>
<path style=" stroke:none;fill-rule:nonzero;fill:rgb(9.411765%,43.921569%,68.235296%);fill-opacity:1;" d="M 44.875 116.125 L 49.625 116.125 L 49.625 120.875 L 44.875 120.875 Z M 44.875 116.125 "/>
<path style=" stroke:none;fill-rule:nonzero;fill:rgb(9.411765%,43.921569%,68.235296%);fill-opacity:1;" d="M 44.875 120.875 L 49.625 120.875 L 49.625 125.625 L 44.875 125.625 Z M 44.875 120.875 "/>
<path style=" stroke:none;fill-rule:nonzero;fill:rgb(9.411765%,43.921569%,68.235296%);fill-opacity:1;" d="M 44.875 139.875 L 49.625 139.875 L 49.625 144.625 L 44.875 144.625 Z M 44.875 139.875 "/>
<path style=" stroke:none;fill-rule:nonzero;fill:rgb(9.411765%,43.921569%,68.235296%);fill-opacity:1;" d="M 49.625 11.625 L 54.375 11.625 L 54.375 16.375 L 49.625 16.375 Z M 49.625 11.625 "/>
<path style=" stroke:none;fill-rule:nonzero;fill:rgb(9.411765%,43.921569%,68.235296%);fill-opacity:1;" d="M 49.625 25.875 L 54.375 25.875 L 54.375 30.625 L 49.625 30.625 Z M 49.625 25.875 "/>
<path style=" stroke:none;fill-rule:nonzero;fill:rgb(9.411765%,43.921569%,68.235296%);fill-opacity:1;" d="M 49.625 44.875 L 54.375 44.875 L 54.375 49.625 L 49.625 49.625 Z M 49.625 44.875 "/>
<path style=" stroke:none;fill-rule:nonzero;fill:rgb(9.411765%,43.921569%,68.235296%);fill-opacity:1;" d="M 49.625 54.375 L 54.375 54.375 L 54.375 59.125 L 49.625 59.125 Z M 49.625 54.375 "/>
<path style=" stroke:none;fill-rule:nonzero;fill:rgb(9.411765%,43.921569%,68.235296%);fill-opacity:1;" d="M 49.625 68.625 L 54.375 68.625 L 54.375 73.375 L 49.625 73.375 Z M 49.625 68.625 "/>
<path style=" stroke:none;fill-rule:nonzero;fill:rgb(9.411765%,43.921569%,68.235296%);fill-opacity:1;" d="M 49.625 92.375 L 54.375 92.375 L 54.375 97.125 L 49.625 97.125 Z M 49.625 92.375 "/>
<path style=" stroke:none;fill-rule:nonzero;fill:rgb(9.411765%,43.921569%,68.235296%);fill-opacity:1;" d="M 49.625 97.125 L 54.375 97.125 L 54.375 101.875 L 49.625 101.875 Z M 49.625 97.125 "/>
<path style=" stroke:none;fill-rule:nonzero;fill:rgb(9.411765%,43.921569%,68.235296%);fill-opacity:1;" d="M 49.625 101.875 L 54.375 101.875 L 54.375 106.625 L 49.625 106.625 Z M 49.625 101.875 "/>
<path style=" stroke:none;fill-rule:nonzero;fill:rgb(9.411765%,43.921569%,68.235296%);fill-opacity:1;" d="M 49.625 106.625 L 54.375 106.625 L 54.375 111.375 L 49.625 111.375 Z M 49.625 106.625 "/>
<path style=" stroke:none;fill-rule:nonzero;fill:rgb(9.411765%,43.921569%,68.235296%);fill-opacity:1;" d="M 49.625 111.375 L 54.375 111.375 L 54.375 116.125 L 49.625 116.125 Z M 49.625 111.375 "/>
<path style=" stroke:none;fill-rule:nonzero;fill:rgb(9.411765%,43.921569%,68.235296%);fill-opacity:1;" d="M 49.625 116.125 L 54.375 116.125 L 54.375 120.875 L 49.625 120.875 Z M 49.625 116.125 "/>
<path style=" stroke:none;fill-rule:nonzero;fill:rgb(9.411765%,43.921569%,68.235296%);fill-opacity:1;" d="M 49.625 120.875 L 54.375 120.875 L 54.375 125.625 L 49.625 125.625 Z M 49.625 120.875 "/>
<path style=" stroke:none;fill-rule:nonzero;fill:rgb(9.411765%,43.921569%,68.235296%);fill-opacity:1;" d="M 49.625 125.625 L 54.375 125.625 L 54.375 130.375 L 49.625 130.375 Z M 49.625 125.625 "/>
<path style=" stroke:none;fill-rule:nonzero;fill:rgb(9.411765%,43.921569%,68.235296%);fill-opacity:1;" d="M 49.625 130.375 L 54.375 130.375 L 54.375 135.125 L 49.625 135.125 Z M 49.625 130.375 "/>
<path style=" stroke:none;fill-rule:nonzero;fill:rgb(9.411765%,43.921569%,68.235296%);fill-opacity:1;" d="M 49.625 139.875 L 54.375 139.875 L 54.375 144.625 L 49.625 144.625 Z M 49.625 139.875 "/>
<path style=" stroke:none;fill-rule:nonzero;fill:rgb(9.411765%,43.921569%,68.235296%);fill-opacity:1;" d="M 54.375 16.375 L 59.125 16.375 L 59.125 21.125 L 54.375 21.125 Z M 54.375 16.375 "/>
<path style=" stroke:none;fill-rule:nonzero;fill:rgb(9.411765%,43.921569%,68.235296%);fill-opacity:1;" d="M 54.375 21.125 L 59.125 21.125 L 59.125 25.875 L 54.375 25.875 Z M 54.375 21.125 "/>
<path style=" stroke:none;fill-rule:nonzero;fill:rgb(9.411765%,43.921569%,68.235296%);fill-opacity:1;" d="M 54.375 30.625 L 59.125 30.625 L 59.125 35.375 L 54.375 35.375 Z M 54.375 30.625 "/>
<path style=" stroke:none;fill-rule:nonzero;fill:rgb(9.411765%,43.921569%,68.235296%);fill-opacity:1;" d="M 54.375 35.375 L 59.125 35.375 L 59.125 40.125 L 54.375 40.125 Z M 54.375 35.375 "/>
<path style=" stroke:none;fill-rule:nonzero;fill:rgb(9.411765%,43.921569%,68.235296%);fill-opacity:1;" d="M 54.375 54.375 L 59.125 54.375 L 59.125 59.125 L 54.375 59.125 Z M 54.375 54.375 "/>
<path style=" stroke:none;fill-rule:nonzero;fill:rgb(9.411765%,43.921569%,68.235296%);fill-opacity:1;" d="M 54.375 59.125 L 59.125 59.125 L 59.125 63.875 L 54.375 63.875 Z M 54.375 59.125 "/>
<path style=" stroke:none;fill-rule:nonzero;fill:rgb(9.411765%,43.921569%,68.235296%);fill-opacity:1;" d="M 54.375 68.625 L 59.125 68.625 L 59.125 73.375 L 54.375 73.375 Z M 54.375 68.625 "/>
<path style=" stroke:none;fill-rule:nonzero;fill:rgb(9.411765%,43.921569%,68.235296%);fill-opacity:1;" d="M 54.375 73.375 L 59.125 73.375 L 59.125 78.125 L 54.375 78.125 Z M 54.375 73.375 "/>
<path style=" stroke:none;fill-rule:nonzero;fill:rgb(9.411765%,43.921569%,68.235296%);fill-opacity:1;" d="M 54.375 82.875 L 59.125 82.875 L 59.125 87.625 L 54.375 87.625 Z M 54.375 82.875 "/>
<path style=" stroke:none;fill-rule:nonzero;fill:rgb(9.411765%,43.921569%,68.235296%);fill-opacity:1;" d="M 54.375 106.625 L 59.125 106.625 L 59.125 111.375 L 54.375 111.375 Z M 54.375 106.625 "/>
<path style=" stroke:none;fill-rule:nonzero;fill:rgb(9.411765%,43.921569%,68.235296%);fill-opacity:1;" d="M 54.375 111.375 L 59.125 111.375 L 59.125 116.125 L 54.375 116.125 Z M 54.375 111.375 "/>
<path style=" stroke:none;fill-rule:nonzero;fill:rgb(9.411765%,43.921569%,68.235296%);fill-opacity:1;" d="M 54.375 116.125 L 59.125 116.125 L 59.125 120.875 L 54.375 120.875 Z M 54.375 116.125 "/>
<path style=" stroke:none;fill-rule:nonzero;fill:rgb(9.411765%,43.921569%,68.235296%);fill-opacity:1;" d="M 54.375 120.875 L 59.125 120.875 L 59.125 125.625 L 54.375 125.625 Z M 54.375 120.875 "/>
<path style=" stroke:none;fill-rule:nonzero;fill:rgb(9.411765%,43.921569%,68.235296%);fill-opacity:1;" d="M 54.375 125.625 L 59.125 125.625 L 59.125 130.375 L 54.375 130.375 Z M 54.375 125.625 "/>
<path style=" stroke:none;fill-rule:nonzero;fill:rgb(9.411765%,43.921569%,68.235296%);fill-opacity:1;" d="M 54.375 130.375 L 59.125 130.375 L 59.125 135.125 L 54.375 135.125 Z M 54.375 130.375 "/>
<path style=" stroke:none;fill-rule:nonzero;fill:rgb(9.411765%,43.921569%,68.235296%);fill-opacity:1;" d="M 59.125 16.375 L 63.875 16.375 L 63.875 21.125 L 59.125 21.125 Z M 59.125 16.375 "/>
<path style=" stroke:none;fill-rule:nonzero;fill:rgb(9.411765%,43.921569%,68.235296%);fill-opacity:1;" d="M 59.125 21.125 L 63.875 21.125 L 63.875 25.875 L 59.125 25.875 Z M 59.125 21.125 "/>
<path style=" stroke:none;fill-rule:nonzero;fill:rgb(9.411765%,43.921569%,68.235296%);fill-opacity:1;" d="M 59.125 30.625 L 63.875 30.625 L 63.875 35.375 L 59.125 35.375 Z M 59.125 30.625 "/>
<path style=" stroke:none;fill-rule:nonzero;fill:rgb(9.411765%,43.921569%,68.235296%);fill-opacity:1;" d="M 59.125 40.125 L 63.875 40.125 L 63.875 44.875 L 59.125 44.875 Z M 59.125 40.125 "/>
<path style=" stroke:none;fill-rule:nonzero;fill:rgb(9.411765%,43.921569%,68.235296%);fill-opacity:1;" d="M 59.125 54.375 L 63.875 54.375 L 63.875 59.125 L 59.125 59.125 Z M 59.125 54.375 "/>
<path style=" stroke:none;fill-rule:nonzero;fill:rgb(9.411765%,43.921569%,68.235296%);fill-opacity:1;" d="M 59.125 59.125 L 63.875 59.125 L 63.875 63.875 L 59.125 63.875 Z M 59.125 59.125 "/>
<path style=" stroke:none;fill-rule:nonzero;fill:rgb(9.411765%,43.921569%,68.235296%);fill-opacity:1;" d="M 59.125 63.875 L 63.875 63.875 L 63.875 68.625 L 59.125 68.625 Z M 59.125 63.875 "/>
<path style=" stroke:none;fill-rule:nonzero;fill:rgb(9.411765%,43.921569%,68.235296%);fill-opacity:1;" d="M 59.125 73.375 L 63.875 73.375 L 63.875 78.125 L 59.125 78.125 Z M 59.125 73.375 "/>
<path style=" stroke:none;fill-rule:nonzero;fill:rgb(9.411765%,43.921569%,68.235296%);fill-opacity:1;" d="M 59.125 78.125 L 63.875 78.125 L 63.875 82.875 L 59.125 82.875 Z M 59.125 78.125 "/>
<path style=" stroke:none;fill-rule:nonzero;fill:rgb(9.411765%,43.921569%,68.235296%);fill-opacity:1;" d="M 59.125 82.875 L 63.875 82.875 L 63.875 87.625 L 59.125 87.625 Z M 59.125 82.875 "/>
<path style=" stroke:none;fill-rule:nonzero;fill:rgb(9.411765%,43.921569%,68.235296%);fill-opacity:1;" d="M 59.125 97.125 L 63.875 97.125 L 63.875 101.875 L 59.125 101.875 Z M 59.125 97.125 "/>
<path style=" stroke:none;fill-rule:nonzero;fill:rgb(9.411765%,43.921569%,68.235296%);fill-opacity:1;" d="M 59.125 101.875 L 63.875 101.875 L 63.875 106.625 L 59.125 106.625 Z M 59.125 101.875 "/>
<path style=" stroke:none;fill-rule:nonzero;fill:rgb(9.411765%,43.921569%,68.235296%);fill-opacity:1;" d="M 59.125 106.625 L 63.875 106.625 L 63.875 111.375 L 59.125 111.375 Z M 59.125 106.625 "/>
<path style=" stroke:none;fill-rule:nonzero;fill:rgb(9.411765%,43.921569%,68.235296%);fill-opacity:1;" d="M 59.125 111.375 L 63.875 111.375 L 63.875 116.125 L 59.125 116.125 Z M 59.125 111.375 "/>
<path style=" stroke:none;fill-rule:nonzero;fill:rgb(9.411765%,43.921569%,68.235296%);fill-opacity:1;" d="M 59.125 120.875 L 63.875 120.875 L 63.875 125.625 L 59.125 125.625 Z M 59.125 120.875 "/>
<path style=" stroke:none;fill-rule:nonzero;fill:rgb(9.411765%,43.921569%,68.235296%);fill-opacity:1;" d="M 59.125 125.625 L 63.875 125.625 L 63.875 130.375 L 59.125 130.375 Z M 59.125 125.625 "/>
<path style=" stroke:none;fill-rule:nonzero;fill:rgb(9.411765%,43.921569%,68.235296%);fill-opacity:1;" d="M 59.125 135.125 L 63.875 135.125 L 63.875 139.875 L 59.125 139.875 Z M 59.125 135.125 "/>
<path style=" stroke:none;fill-rule:nonzero;fill:rgb(9.411765%,43.921569%,68.235296%);fill-opacity:1;" d="M 63.875 25.875 L 68.625 25.875 L 68.625 30.625 L 63.875 30.625 Z M 63.875 25.875 "/>
<path style=" stroke:none;fill-rule:nonzero;fill:rgb(9.411765%,43.921569%,68.235296%);fill-opacity:1;" d="M 63.875 35.375 L 68.625 35.375 L 68.625 40.125 L 63.875 40.125 Z M 63.875 35.375 "/>
<path style=" stroke:none;fill-rule:nonzero;fill:rgb(9.411765%,43.921569%,68.235296%);fill-opacity:1;" d="M 63.875 63.875 L 68.625 63.875 L 68.625 68.625 L 63.875 68.625 Z M 63.875 63.875 "/>
<path style=" stroke:none;fill-rule:nonzero;fill:rgb(9.411765%,43.921569%,68.235296%);fill-opacity:1;" d="M 63.875 82.875 L 68.625 82.875 L 68.625 87.625 L 63.875 87.625 Z M 63.875 82.875 "/>
<path style=" stroke:none;fill-rule:nonzero;fill:rgb(9.411765%,43.921569%,68.235296%);fill-opacity:1;" d="M 63.875 87.625 L 68.625 87.625 L 68.625 92.375 L 63.875 92.375 Z M 63.875 87.625 "/>
<path style=" stroke:none;fill-rule:nonzero;fill:rgb(9.411765%,43.921569%,68.235296%);fill-opacity:1;" d="M 63.875 92.375 L 68.625 92.375 L 68.625 97.125 L 63.875 97.125 Z M 63.875 92.375 "/>
<path style=" stroke:none;fill-rule:nonzero;fill:rgb(9.411765%,43.921569%,68.235296%);fill-opacity:1;" d="M 63.875 97.125 L 68.625 97.125 L 68.625 101.875 L 63.875 101.875 Z M 63.875 97.125 "/>
<path style=" stroke:none;fill-rule:nonzero;fill:rgb(9.411765%,43.921569%,68.235296%);fill-opacity:1;" d="M 63.875 106.625 L 68.625 106.625 L 68.625 111.375 L 63.875 111.375 Z M 63.875 106.625 "/>
<path style=" stroke:none;fill-rule:nonzero;fill:rgb(9.411765%,43.921569%,68.235296%);fill-opacity:1;" d="M 63.875 116.125 L 68.625 116.125 L 68.625 120.875 L 63.875 120.875 Z M 63.875 116.125 "/>
<path style=" stroke:none;fill-rule:nonzero;fill:rgb(9.411765%,43.921569%,68.235296%);fill-opacity:1;" d="M 63.875 130.375 L 68.625 130.375 L 68.625 135.125 L 63.875 135.125 Z M 63.875 130.375 "/>
<path style=" stroke:none;fill-rule:nonzero;fill:rgb(9.411765%,43.921569%,68.235296%);fill-opacity:1;" d="M 63.875 135.125 L 68.625 135.125 L 68.625 139.875 L 63.875 139.875 Z M 63.875 135.125 "/>
<path style=" stroke:none;fill-rule:nonzero;fill:rgb(9.411765%,43.921569%,68.235296%);fill-opacity:1;" d="M 63.875 139.875 L 68.625 139.875 L 68.625 144.625 L 63.875 144.625 Z M 63.875 139.875 "/>
<path style=" stroke:none;fill-rule:nonzero;fill:rgb(9.411765%,43.921569%,68.235296%);fill-opacity:1;" d="M 68.625 16.375 L 73.375 16.375 L 73.375 21.125 L 68.625 21.125 Z M 68.625 16.375 "/>
<path style=" stroke:none;fill-rule:nonzero;fill:rgb(9.411765%,43.921569%,68.235296%);fill-opacity:1;" d="M 68.625 25.875 L 73.375 25.875 L 73.375 30.625 L 68.625 30.625 Z M 68.625 25.875 "/>
<path style=" stroke:none;fill-rule:nonzero;fill:rgb(9.411765%,43.921569%,68.235296%);fill-opacity:1;" d="M 68.625 30.625 L 73.375 30.625 L 73.375 35.375 L 68.625 35.375 Z M 68.625 30.625 "/>
<path style=" stroke:none;fill-rule:nonzero;fill:rgb(9.411765%,43.921569%,68.235296%);fill-opacity:1;" d="M 68.625 40.125 L 73.375 40.125 L 73.375 44.875 L 68.625 44.875 Z M 68.625 40.125 "/>
<path style=" stroke:none;fill-rule:nonzero;fill:rgb(9.411765%,43.921569%,68.235296%);fill-opacity:1;" d="M 68.625 44.875 L 73.375 44.875 L 73.375 49.625 L 68.625 49.625 Z M 68.625 44.875 "/>
<path style=" stroke:none;fill-rule:nonzero;fill:rgb(9.411765%,43.921569%,68.235296%);fill-opacity:1;" d="M 68.625 49.625 L 73.375 49.625 L 73.375 54.375 L 68.625 54.375 Z M 68.625 49.625 "/>
<path style=" stroke:none;fill-rule:nonzero;fill:rgb(9.411765%,43.921569%,68.235296%);fill-opacity:1;" d="M 68.625 54.375 L 73.375 54.375 L 73.375 59.125 L 68.625 59.125 Z M 68.625 54.375 "/>
<path style=" stroke:none;fill-rule:nonzero;fill:rgb(9.411765%,43.921569%,68.235296%);fill-opacity:1;" d="M 68.625 59.125 L 73.375 59.125 L 73.375 63.875 L 68.625 63.875 Z M 68.625 59.125 "/>
<path style=" stroke:none;fill-rule:nonzero;fill:rgb(9.411765%,43.921569%,68.235296%);fill-opacity:1;" d="M 68.625 68.625 L 73.375 68.625 L 73.375 73.375 L 68.625 73.375 Z M 68.625 68.625 "/>
<path style=" stroke:none;fill-rule:nonzero;fill:rgb(9.411765%,43.921569%,68.235296%);fill-opacity:1;" d="M 68.625 73.375 L 73.375 73.375 L 73.375 78.125 L 68.625 78.125 Z M 68.625 73.375 "/>
<path style=" stroke:none;fill-rule:nonzero;fill:rgb(9.411765%,43.921569%,68.235296%);fill-opacity:1;" d="M 68.625 82.875 L 73.375 82.875 L 73.375 87.625 L 68.625 87.625 Z M 68.625 82.875 "/>
<path style=" stroke:none;fill-rule:nonzero;fill:rgb(9.411765%,43.921569%,68.235296%);fill-opacity:1;" d="M 68.625 87.625 L 73.375 87.625 L 73.375 92.375 L 68.625 92.375 Z M 68.625 87.625 "/>
<path style=" stroke:none;fill-rule:nonzero;fill:rgb(9.411765%,43.921569%,68.235296%);fill-opacity:1;" d="M 68.625 92.375 L 73.375 92.375 L 73.375 97.125 L 68.625 97.125 Z M 68.625 92.375 "/>
<path style=" stroke:none;fill-rule:nonzero;fill:rgb(9.411765%,43.921569%,68.235296%);fill-opacity:1;" d="M 68.625 97.125 L 73.375 97.125 L 73.375 101.875 L 68.625 101.875 Z M 68.625 97.125 "/>
<path style=" stroke:none;fill-rule:nonzero;fill:rgb(9.411765%,43.921569%,68.235296%);fill-opacity:1;" d="M 68.625 106.625 L 73.375 106.625 L 73.375 111.375 L 68.625 111.375 Z M 68.625 106.625 "/>
<path style=" stroke:none;fill-rule:nonzero;fill:rgb(9.411765%,43.921569%,68.235296%);fill-opacity:1;" d="M 68.625 111.375 L 73.375 111.375 L 73.375 116.125 L 68.625 116.125 Z M 68.625 111.375 "/>
<path style=" stroke:none;fill-rule:nonzero;fill:rgb(9.411765%,43.921569%,68.235296%);fill-opacity:1;" d="M 68.625 120.875 L 73.375 120.875 L 73.375 125.625 L 68.625 125.625 Z M 68.625 120.875 "/>
<path style=" stroke:none;fill-rule:nonzero;fill:rgb(9.411765%,43.921569%,68.235296%);fill-opacity:1;" d="M 68.625 125.625 L 73.375 125.625 L 73.375 130.375 L 68.625 130.375 Z M 68.625 125.625 "/>
<path style=" stroke:none;fill-rule:nonzero;fill:rgb(9.411765%,43.921569%,68.235296%);fill-opacity:1;" d="M 68.625 135.125 L 73.375 135.125 L 73.375 139.875 L 68.625 139.875 Z M 68.625 135.125 "/>
<path style=" stroke:none;fill-rule:nonzero;fill:rgb(9.411765%,43.921569%,68.235296%);fill-opacity:1;" d="M 68.625 139.875 L 73.375 139.875 L 73.375 144.625 L 68.625 144.625 Z M 68.625 139.875 "/>
<path style=" stroke:none;fill-rule:nonzero;fill:rgb(9.411765%,43.921569%,68.235296%);fill-opacity:1;" d="M 73.375 6.875 L 78.125 6.875 L 78.125 11.625 L 73.375 11.625 Z M 73.375 6.875 "/>
<path style=" stroke:none;fill-rule:nonzero;fill:rgb(9.411765%,43.921569%,68.235296%);fill-opacity:1;" d="M 73.375 11.625 L 78.125 11.625 L 78.125 16.375 L 73.375 16.375 Z M 73.375 11.625 "/>
<path style=" stroke:none;fill-rule:nonzero;fill:rgb(9.411765%,43.921569%,68.235296%);fill-opacity:1;" d="M 73.375 21.125 L 78.125 21.125 L 78.125 25.875 L 73.375 25.875 Z M 73.375 21.125 "/>
<path style=" stroke:none;fill-rule:nonzero;fill:rgb(9.411765%,43.921569%,68.235296%);fill-opacity:1;" d="M 73.375 25.875 L 78.125 25.875 L 78.125 30.625 L 73.375 30.625 Z M 73.375 25.875 "/>
<path style=" stroke:none;fill-rule:nonzero;fill:rgb(9.411765%,43.921569%,68.235296%);fill-opacity:1;" d="M 73.375 35.375 L 78.125 35.375 L 78.125 40.125 L 73.375 40.125 Z M 73.375 35.375 "/>
<path style=" stroke:none;fill-rule:nonzero;fill:rgb(9.411765%,43.921569%,68.235296%);fill-opacity:1;" d="M 73.375 44.875 L 78.125 44.875 L 78.125 49.625 L 73.375 49.625 Z M 73.375 44.875 "/>
<path style=" stroke:none;fill-rule:nonzero;fill:rgb(9.411765%,43.921569%,68.235296%);fill-opacity:1;" d="M 73.375 49.625 L 78.125 49.625 L 78.125 54.375 L 73.375 54.375 Z M 73.375 49.625 "/>
<path style=" stroke:none;fill-rule:nonzero;fill:rgb(9.411765%,43.921569%,68.235296%);fill-opacity:1;" d="M 73.375 63.875 L 78.125 63.875 L 78.125 68.625 L 73.375 68.625 Z M 73.375 63.875 "/>
<path style=" stroke:none;fill-rule:nonzero;fill:rgb(9.411765%,43.921569%,68.235296%);fill-opacity:1;" d="M 73.375 68.625 L 78.125 68.625 L 78.125 73.375 L 73.375 73.375 Z M 73.375 68.625 "/>
<path style=" stroke:none;fill-rule:nonzero;fill:rgb(9.411765%,43.921569%,68.235296%);fill-opacity:1;" d="M 73.375 73.375 L 78.125 73.375 L 78.125 78.125 L 73.375 78.125 Z M 73.375 73.375 "/>
<path style=" stroke:none;fill-rule:nonzero;fill:rgb(9.411765%,43.921569%,68.235296%);fill-opacity:1;" d="M 73.375 78.125 L 78.125 78.125 L 78.125 82.875 L 73.375 82.875 Z M 73.375 78.125 "/>
<path style=" stroke:none;fill-rule:nonzero;fill:rgb(9.411765%,43.921569%,68.235296%);fill-opacity:1;" d="M 73.375 87.625 L 78.125 87.625 L 78.125 92.375 L 73.375 92.375 Z M 73.375 87.625 "/>
<path style=" stroke:none;fill-rule:nonzero;fill:rgb(9.411765%,43.921569%,68.235296%);fill-opacity:1;" d="M 73.375 101.875 L 78.125 101.875 L 78.125 106.625 L 73.375 106.625 Z M 73.375 101.875 "/>
<path style=" stroke:none;fill-rule:nonzero;fill:rgb(9.411765%,43.921569%,68.235296%);fill-opacity:1;" d="M 73.375 106.625 L 78.125 106.625 L 78.125 111.375 L 73.375 111.375 Z M 73.375 106.625 "/>
<path style=" stroke:none;fill-rule:nonzero;fill:rgb(9.411765%,43.921569%,68.235296%);fill-opacity:1;" d="M 73.375 116.125 L 78.125 116.125 L 78.125 120.875 L 73.375 120.875 Z M 73.375 116.125 "/>
<path style=" stroke:none;fill-rule:nonzero;fill:rgb(9.411765%,43.921569%,68.235296%);fill-opacity:1;" d="M 78.125 6.875 L 82.875 6.875 L 82.875 11.625 L 78.125 11.625 Z M 78.125 6.875 "/>
<path style=" stroke:none;fill-rule:nonzero;fill:rgb(9.411765%,43.921569%,68.235296%);fill-opacity:1;" d="M 78.125 16.375 L 82.875 16.375 L 82.875 21.125 L 78.125 21.125 Z M 78.125 16.375 "/>
<path style=" stroke:none;fill-rule:nonzero;fill:rgb(9.411765%,43.921569%,68.235296%);fill-opacity:1;" d="M 78.125 21.125 L 82.875 21.125 L 82.875 25.875 L 78.125 25.875 Z M 78.125 21.125 "/>
<path style=" stroke:none;fill-rule:nonzero;fill:rgb(9.411765%,43.921569%,68.235296%);fill-opacity:1;" d="M 78.125 25.875 L 82.875 25.875 L 82.875 30.625 L 78.125 30.625 Z M 78.125 25.875 "/>
<path style=" stroke:none;fill-rule:nonzero;fill:rgb(9.411765%,43.921569%,68.235296%);fill-opacity:1;" d="M 78.125 30.625 L 82.875 30.625 L 82.875 35.375 L 78.125 35.375 Z M 78.125 30.625 "/>
<path style=" stroke:none;fill-rule:nonzero;fill:rgb(9.411765%,43.921569%,68.235296%);fill-opacity:1;" d="M 78.125 40.125 L 82.875 40.125 L 82.875 44.875 L 78.125 44.875 Z M 78.125 40.125 "/>
<path style=" stroke:none;fill-rule:nonzero;fill:rgb(9.411765%,43.921569%,68.235296%);fill-opacity:1;" d="M 78.125 44.875 L 82.875 44.875 L 82.875 49.625 L 78.125 49.625 Z M 78.125 44.875 "/>
<path style=" stroke:none;fill-rule:nonzero;fill:rgb(9.411765%,43.921569%,68.235296%);fill-opacity:1;" d="M 78.125 49.625 L 82.875 49.625 L 82.875 54.375 L 78.125 54.375 Z M 78.125 49.625 "/>
<path style=" stroke:none;fill-rule:nonzero;fill:rgb(9.411765%,43.921569%,68.235296%);fill-opacity:1;" d="M 78.125 54.375 L 82.875 54.375 L 82.875 59.125 L 78.125 59.125 Z M 78.125 54.375 "/>
<path style=" stroke:none;fill-rule:nonzero;fill:rgb(9.411765%,43.921569%,68.235296%);fill-opacity:1;" d="M 78.125 68.625 L 82.875 68.625 L 82.875 73.375 L 78.125 73.375 Z M 78.125 68.625 "/>
<path style=" stroke:none;fill-rule:nonzero;fill:rgb(9.411765%,43.921569%,68.235296%);fill-opacity:1;" d="M 78.125 82.875 L 82.875 82.875 L 82.875 87.625 L 78.125 87.625 Z M 78.125 82.875 "/>
<path style=" stroke:none;fill-rule:nonzero;fill:rgb(9.411765%,43.921569%,68.235296%);fill-opacity:1;" d="M 78.125 87.625 L 82.875 87.625 L 82.875 92.375 L 78.125 92.375 Z M 78.125 87.625 "/>
<path style=" stroke:none;fill-rule:nonzero;fill:rgb(9.411765%,43.921569%,68.235296%);fill-opacity:1;" d="M 78.125 92.375 L 82.875 92.375 L 82.875 97.125 L 78.125 97.125 Z M 78.125 92.375 "/>
<path style=" stroke:none;fill-rule:nonzero;fill:rgb(9.411765%,43.921569%,68.235296%);fill-opacity:1;" d="M 78.125 111.375 L 82.875 111.375 L 82.875 116.125 L 78.125 116.125 Z M 78.125 111.375 "/>
<path style=" stroke:none;fill-rule:nonzero;fill:rgb(9.411765%,43.921569%,68.235296%);fill-opacity:1;" d="M 78.125 120.875 L 82.875 120.875 L 82.875 125.625 L 78.125 125.625 Z M 78.125 120.875 "/>
<path style=" stroke:none;fill-rule:nonzero;fill:rgb(9.411765%,43.921569%,68.235296%);fill-opacity:1;" d="M 78.125 125.625 L 82.875 125.625 L 82.875 130.375 L 78.125 130.375 Z M 78.125 125.625 "/>
<path style=" stroke:none;fill-rule:nonzero;fill:rgb(9.411765%,43.921569%,68.235296%);fill-opacity:1;" d="M 78.125 139.875 L 82.875 139.875 L 82.875 144.625 L 78.125 144.625 Z M 78.125 139.875 "/>
<path style=" stroke:none;fill-rule:nonzero;fill:rgb(9.411765%,43.921569%,68.235296%);fill-opacity:1;" d="M 82.875 21.125 L 87.625 21.125 L 87.625 25.875 L 82.875 25.875 Z M 82.875 21.125 "/>
<path style=" stroke:none;fill-rule:nonzero;fill:rgb(9.411765%,43.921569%,68.235296%);fill-opacity:1;" d="M 82.875 35.375 L 87.625 35.375 L 87.625 40.125 L 82.875 40.125 Z M 82.875 35.375 "/>
<path style=" stroke:none;fill-rule:nonzero;fill:rgb(9.411765%,43.921569%,68.235296%);fill-opacity:1;" d="M 82.875 40.125 L 87.625 40.125 L 87.625 44.875 L 82.875 44.875 Z M 82.875 40.125 "/>
<path style=" stroke:none;fill-rule:nonzero;fill:rgb(9.411765%,43.921569%,68.235296%);fill-opacity:1;" d="M 82.875 54.375 L 87.625 54.375 L 87.625 59.125 L 82.875 59.125 Z M 82.875 54.375 "/>
<path style=" stroke:none;fill-rule:nonzero;fill:rgb(9.411765%,43.921569%,68.235296%);fill-opacity:1;" d="M 82.875 63.875 L 87.625 63.875 L 87.625 68.625 L 82.875 68.625 Z M 82.875 63.875 "/>
<path style=" stroke:none;fill-rule:nonzero;fill:rgb(9.411765%,43.921569%,68.235296%);fill-opacity:1;" d="M 82.875 73.375 L 87.625 73.375 L 87.625 78.125 L 82.875 78.125 Z M 82.875 73.375 "/>
<path style=" stroke:none;fill-rule:nonzero;fill:rgb(9.411765%,43.921569%,68.235296%);fill-opacity:1;" d="M 82.875 78.125 L 87.625 78.125 L 87.625 82.875 L 82.875 82.875 Z M 82.875 78.125 "/>
<path style=" stroke:none;fill-rule:nonzero;fill:rgb(9.411765%,43.921569%,68.235296%);fill-opacity:1;" d="M 82.875 82.875 L 87.625 82.875 L 87.625 87.625 L 82.875 87.625 Z M 82.875 82.875 "/>
<path style=" stroke:none;fill-rule:nonzero;fill:rgb(9.411765%,43.921569%,68.235296%);fill-opacity:1;" d="M 82.875 106.625 L 87.625 106.625 L 87.625 111.375 L 82.875 111.375 Z M 82.875 106.625 "/>
<path style=" stroke:none;fill-rule:nonzero;fill:rgb(9.411765%,43.921569%,68.235296%);fill-opacity:1;" d="M 82.875 116.125 L 87.625 116.125 L 87.625 120.875 L 82.875 120.875 Z M 82.875 116.125 "/>
<path style=" stroke:none;fill-rule:nonzero;fill:rgb(9.411765%,43.921569%,68.235296%);fill-opacity:1;" d="M 82.875 125.625 L 87.625 125.625 L 87.625 130.375 L 82.875 130.375 Z M 82.875 125.625 "/>
<path style=" stroke:none;fill-rule:nonzero;fill:rgb(9.411765%,43.921569%,68.235296%);fill-opacity:1;" d="M 82.875 130.375 L 87.625 130.375 L 87.625 135.125 L 82.875 135.125 Z M 82.875 130.375 "/>
<path style=" stroke:none;fill-rule:nonzero;fill:rgb(9.411765%,43.921569%,68.235296%);fill-opacity:1;" d="M 82.875 135.125 L 87.625 135.125 L 87.625 139.875 L 82.875 139.875 Z M 82.875 135.125 "/>
<path style=" stroke:none;fill-rule:nonzero;fill:rgb(9.411765%,43.921569%,68.235296%);fill-opacity:1;" d="M 87.625 6.875 L 92.375 6.875 L 92.375 11.625 L 87.625 11.625 Z M 87.625 6.875 "/>
<path style=" stroke:none;fill-rule:nonzero;fill:rgb(9.411765%,43.921569%,68.235296%);fill-opacity:1;" d="M 87.625 11.625 L 92.375 11.625 L 92.375 16.375 L 87.625 16.375 Z M 87.625 11.625 "/>
<path style=" stroke:none;fill-rule:nonzero;fill:rgb(9.411765%,43.921569%,68.235296%);fill-opacity:1;" d="M 87.625 16.375 L 92.375 16.375 L 92.375 21.125 L 87.625 21.125 Z M 87.625 16.375 "/>
<path style=" stroke:none;fill-rule:nonzero;fill:rgb(9.411765%,43.921569%,68.235296%);fill-opacity:1;" d="M 87.625 21.125 L 92.375 21.125 L 92.375 25.875 L 87.625 25.875 Z M 87.625 21.125 "/>
<path style=" stroke:none;fill-rule:nonzero;fill:rgb(9.411765%,43.921569%,68.235296%);fill-opacity:1;" d="M 87.625 44.875 L 92.375 44.875 L 92.375 49.625 L 87.625 49.625 Z M 87.625 44.875 "/>
<path style=" stroke:none;fill-rule:nonzero;fill:rgb(9.411765%,43.921569%,68.235296%);fill-opacity:1;" d="M 87.625 54.375 L 92.375 54.375 L 92.375 59.125 L 87.625 59.125 Z M 87.625 54.375 "/>
<path style=" stroke:none;fill-rule:nonzero;fill:rgb(9.411765%,43.921569%,68.235296%);fill-opacity:1;" d="M 87.625 59.125 L 92.375 59.125 L 92.375 63.875 L 87.625 63.875 Z M 87.625 59.125 "/>
<path style=" stroke:none;fill-rule:nonzero;fill:rgb(9.411765%,43.921569%,68.235296%);fill-opacity:1;" d="M 87.625 63.875 L 92.375 63.875 L 92.375 68.625 L 87.625 68.625 Z M 87.625 63.875 "/>
<path style=" stroke:none;fill-rule:nonzero;fill:rgb(9.411765%,43.921569%,68.235296%);fill-opacity:1;" d="M 87.625 78.125 L 92.375 78.125 L 92.375 82.875 L 87.625 82.875 Z M 87.625 78.125 "/>
<path style=" stroke:none;fill-rule:nonzero;fill:rgb(9.411765%,43.921569%,68.235296%);fill-opacity:1;" d="M 87.625 87.625 L 92.375 87.625 L 92.375 92.375 L 87.625 92.375 Z M 87.625 87.625 "/>
<path style=" stroke:none;fill-rule:nonzero;fill:rgb(9.411765%,43.921569%,68.235296%);fill-opacity:1;" d="M 87.625 92.375 L 92.375 92.375 L 92.375 97.125 L 87.625 97.125 Z M 87.625 92.375 "/>
<path style=" stroke:none;fill-rule:nonzero;fill:rgb(9.411765%,43.921569%,68.235296%);fill-opacity:1;" d="M 87.625 97.125 L 92.375 97.125 L 92.375 101.875 L 87.625 101.875 Z M 87.625 97.125 "/>
<path style=" stroke:none;fill-rule:nonzero;fill:rgb(9.411765%,43.921569%,68.235296%);fill-opacity:1;" d="M 87.625 101.875 L 92.375 101.875 L 92.375 106.625 L 87.625 106.625 Z M 87.625 101.875 "/>
<path style=" stroke:none;fill-rule:nonzero;fill:rgb(9.411765%,43.921569%,68.235296%);fill-opacity:1;" d="M 87.625 111.375 L 92.375 111.375 L 92.375 116.125 L 87.625 116.125 Z M 87.625 111.375 "/>
<path style=" stroke:none;fill-rule:nonzero;fill:rgb(9.411765%,43.921569%,68.235296%);fill-opacity:1;" d="M 87.625 120.875 L 92.375 120.875 L 92.375 125.625 L 87.625 125.625 Z M 87.625 120.875 "/>
<path style=" stroke:none;fill-rule:nonzero;fill:rgb(9.411765%,43.921569%,68.235296%);fill-opacity:1;" d="M 87.625 125.625 L 92.375 125.625 L 92.375 130.375 L 87.625 130.375 Z M 87.625 125.625 "/>
<path style=" stroke:none;fill-rule:nonzero;fill:rgb(9.411765%,43.921569%,68.235296%);fill-opacity:1;" d="M 87.625 130.375 L 92.375 130.375 L 92.375 135.125 L 87.625 135.125 Z M 87.625 130.375 "/>
<path style=" stroke:none;fill-rule:nonzero;fill:rgb(9.411765%,43.921569%,68.235296%);fill-opacity:1;" d="M 87.625 135.125 L 92.375 135.125 L 92.375 139.875 L 87.625 139.875 Z M 87.625 135.125 "/>
<path style=" stroke:none;fill-rule:nonzero;fill:rgb(9.411765%,43.921569%,68.235296%);fill-opacity:1;" d="M 87.625 139.875 L 92.375 139.875 L 92.375 144.625 L 87.625 144.625 Z M 87.625 139.875 "/>
<path style=" stroke:none;fill-rule:nonzero;fill:rgb(9.411765%,43.921569%,68.235296%);fill-opacity:1;" d="M 92.375 6.875 L 97.125 6.875 L 97.125 11.625 L 92.375 11.625 Z M 92.375 6.875 "/>
<path style=" stroke:none;fill-rule:nonzero;fill:rgb(9.411765%,43.921569%,68.235296%);fill-opacity:1;" d="M 92.375 25.875 L 97.125 25.875 L 97.125 30.625 L 92.375 30.625 Z M 92.375 25.875 "/>
<path style=" stroke:none;fill-rule:nonzero;fill:rgb(9.411765%,43.921569%,68.235296%);fill-opacity:1;" d="M 92.375 35.375 L 97.125 35.375 L 97.125 40.125 L 92.375 40.125 Z M 92.375 35.375 "/>
<path style=" stroke:none;fill-rule:nonzero;fill:rgb(9.411765%,43.921569%,68.235296%);fill-opacity:1;" d="M 92.375 40.125 L 97.125 40.125 L 97.125 44.875 L 92.375 44.875 Z M 92.375 40.125 "/>
<path style=" stroke:none;fill-rule:nonzero;fill:rgb(9.411765%,43.921569%,68.235296%);fill-opacity:1;" d="M 92.375 59.125 L 97.125 59.125 L 97.125 63.875 L 92.375 63.875 Z M 92.375 59.125 "/>
<path style=" stroke:none;fill-rule:nonzero;fill:rgb(9.411765%,43.921569%,68.235296%);fill-opacity:1;" d="M 92.375 73.375 L 97.125 73.375 L 97.125 78.125 L 92.375 78.125 Z M 92.375 73.375 "/>
<path style=" stroke:none;fill-rule:nonzero;fill:rgb(9.411765%,43.921569%,68.235296%);fill-opacity:1;" d="M 92.375 78.125 L 97.125 78.125 L 97.125 82.875 L 92.375 82.875 Z M 92.375 78.125 "/>
<path style=" stroke:none;fill-rule:nonzero;fill:rgb(9.411765%,43.921569%,68.235296%);fill-opacity:1;" d="M 92.375 82.875 L 97.125 82.875 L 97.125 87.625 L 92.375 87.625 Z M 92.375 82.875 "/>
<path style=" stroke:none;fill-rule:nonzero;fill:rgb(9.411765%,43.921569%,68.235296%);fill-opacity:1;" d="M 92.375 111.375 L 97.125 111.375 L 97.125 116.125 L 92.375 116.125 Z M 92.375 111.375 "/>
<path style=" stroke:none;fill-rule:nonzero;fill:rgb(9.411765%,43.921569%,68.235296%);fill-opacity:1;" d="M 92.375 116.125 L 97.125 116.125 L 97.125 120.875 L 92.375 120.875 Z M 92.375 116.125 "/>
<path style=" stroke:none;fill-rule:nonzero;fill:rgb(9.411765%,43.921569%,68.235296%);fill-opacity:1;" d="M 92.375 125.625 L 97.125 125.625 L 97.125 130.375 L 92.375 130.375 Z M 92.375 125.625 "/>
<path style=" stroke:none;fill-rule:nonzero;fill:rgb(9.411765%,43.921569%,68.235296%);fill-opacity:1;" d="M 97.125 6.875 L 101.875 6.875 L 101.875 11.625 L 97.125 11.625 Z M 97.125 6.875 "/>
<path style=" stroke:none;fill-rule:nonzero;fill:rgb(9.411765%,43.921569%,68.235296%);fill-opacity:1;" d="M 97.125 16.375 L 101.875 16.375 L 101.875 21.125 L 97.125 21.125 Z M 97.125 16.375 "/>
<path style=" stroke:none;fill-rule:nonzero;fill:rgb(9.411765%,43.921569%,68.235296%);fill-opacity:1;" d="M 97.125 21.125 L 101.875 21.125 L 101.875 25.875 L 97.125 25.875 Z M 97.125 21.125 "/>
<path style=" stroke:none;fill-rule:nonzero;fill:rgb(9.411765%,43.921569%,68.235296%);fill-opacity:1;" d="M 97.125 30.625 L 101.875 30.625 L 101.875 35.375 L 97.125 35.375 Z M 97.125 30.625 "/>
<path style=" stroke:none;fill-rule:nonzero;fill:rgb(9.411765%,43.921569%,68.235296%);fill-opacity:1;" d="M 97.125 44.875 L 101.875 44.875 L 101.875 49.625 L 97.125 49.625 Z M 97.125 44.875 "/>
<path style=" stroke:none;fill-rule:nonzero;fill:rgb(9.411765%,43.921569%,68.235296%);fill-opacity:1;" d="M 97.125 54.375 L 101.875 54.375 L 101.875 59.125 L 97.125 59.125 Z M 97.125 54.375 "/>
<path style=" stroke:none;fill-rule:nonzero;fill:rgb(9.411765%,43.921569%,68.235296%);fill-opacity:1;" d="M 97.125 59.125 L 101.875 59.125 L 101.875 63.875 L 97.125 63.875 Z M 97.125 59.125 "/>
<path style=" stroke:none;fill-rule:nonzero;fill:rgb(9.411765%,43.921569%,68.235296%);fill-opacity:1;" d="M 97.125 78.125 L 101.875 78.125 L 101.875 82.875 L 97.125 82.875 Z M 97.125 78.125 "/>
<path style=" stroke:none;fill-rule:nonzero;fill:rgb(9.411765%,43.921569%,68.235296%);fill-opacity:1;" d="M 97.125 97.125 L 101.875 97.125 L 101.875 101.875 L 97.125 101.875 Z M 97.125 97.125 "/>
<path style=" stroke:none;fill-rule:nonzero;fill:rgb(9.411765%,43.921569%,68.235296%);fill-opacity:1;" d="M 97.125 111.375 L 101.875 111.375 L 101.875 116.125 L 97.125 116.125 Z M 97.125 111.375 "/>
<path style=" stroke:none;fill-rule:nonzero;fill:rgb(9.411765%,43.921569%,68.235296%);fill-opacity:1;" d="M 97.125 135.125 L 101.875 135.125 L 101.875 139.875 L 97.125 139.875 Z M 97.125 135.125 "/>
<path style=" stroke:none;fill-rule:nonzero;fill:rgb(9.411765%,43.921569%,68.235296%);fill-opacity:1;" d="M 101.875 6.875 L 106.625 6.875 L 106.625 11.625 L 101.875 11.625 Z M 101.875 6.875 "/>
<path style=" stroke:none;fill-rule:nonzero;fill:rgb(9.411765%,43.921569%,68.235296%);fill-opacity:1;" d="M 101.875 16.375 L 106.625 16.375 L 106.625 21.125 L 101.875 21.125 Z M 101.875 16.375 "/>
<path style=" stroke:none;fill-rule:nonzero;fill:rgb(9.411765%,43.921569%,68.235296%);fill-opacity:1;" d="M 101.875 30.625 L 106.625 30.625 L 106.625 35.375 L 101.875 35.375 Z M 101.875 30.625 "/>
<path style=" stroke:none;fill-rule:nonzero;fill:rgb(9.411765%,43.921569%,68.235296%);fill-opacity:1;" d="M 101.875 35.375 L 106.625 35.375 L 106.625 40.125 L 101.875 40.125 Z M 101.875 35.375 "/>
<path style=" stroke:none;fill-rule:nonzero;fill:rgb(9.411765%,43.921569%,68.235296%);fill-opacity:1;" d="M 101.875 49.625 L 106.625 49.625 L 106.625 54.375 L 101.875 54.375 Z M 101.875 49.625 "/>
<path style=" stroke:none;fill-rule:nonzero;fill:rgb(9.411765%,43.921569%,68.235296%);fill-opacity:1;" d="M 101.875 63.875 L 106.625 63.875 L 106.625 68.625 L 101.875 68.625 Z M 101.875 63.875 "/>
<path style=" stroke:none;fill-rule:nonzero;fill:rgb(9.411765%,43.921569%,68.235296%);fill-opacity:1;" d="M 101.875 68.625 L 106.625 68.625 L 106.625 73.375 L 101.875 73.375 Z M 101.875 68.625 "/>
<path style=" stroke:none;fill-rule:nonzero;fill:rgb(9.411765%,43.921569%,68.235296%);fill-opacity:1;" d="M 101.875 78.125 L 106.625 78.125 L 106.625 82.875 L 101.875 82.875 Z M 101.875 78.125 "/>
<path style=" stroke:none;fill-rule:nonzero;fill:rgb(9.411765%,43.921569%,68.235296%);fill-opacity:1;" d="M 101.875 87.625 L 106.625 87.625 L 106.625 92.375 L 101.875 92.375 Z M 101.875 87.625 "/>
<path style=" stroke:none;fill-rule:nonzero;fill:rgb(9.411765%,43.921569%,68.235296%);fill-opacity:1;" d="M 101.875 101.875 L 106.625 101.875 L 106.625 106.625 L 101.875 106.625 Z M 101.875 101.875 "/>
<path style=" stroke:none;fill-rule:nonzero;fill:rgb(9.411765%,43.921569%,68.235296%);fill-opacity:1;" d="M 101.875 106.625 L 106.625 106.625 L 106.625 111.375 L 101.875 111.375 Z M 101.875 106.625 "/>
<path style=" stroke:none;fill-rule:nonzero;fill:rgb(9.411765%,43.921569%,68.235296%);fill-opacity:1;" d="M 101.875 111.375 L 106.625 111.375 L 106.625 116.125 L 101.875 116.125 Z M 101.875 111.375 "/>
<path style=" stroke:none;fill-rule:nonzero;fill:rgb(9.411765%,43.921569%,68.235296%);fill-opacity:1;" d="M 101.875 116.125 L 106.625 116.125 L 106.625 120.875 L 101.875 120.875 Z M 101.875 116.125 "/>
<path style=" stroke:none;fill-rule:nonzero;fill:rgb(9.411765%,43.921569%,68.235296%);fill-opacity:1;" d="M 101.875 120.875 L 106.625 120.875 L 106.625 125.625 L 101.875 125.625 Z M 101.875 120.875 "/>
<path style=" stroke:none;fill-rule:nonzero;fill:rgb(9.411765%,43.921569%,68.235296%);fill-opacity:1;" d="M 101.875 130.375 L 106.625 130.375 L 106.625 135.125 L 101.875 135.125 Z M 101.875 130.375 "/>
<path style=" stroke:none;fill-rule:nonzero;fill:rgb(9.411765%,43.921569%,68.235296%);fill-opacity:1;" d="M 101.875 139.875 L 106.625 139.875 L 106.625 144.625 L 101.875 144.625 Z M 101.875 139.875 "/>
<path style=" stroke:none;fill-rule:nonzero;fill:rgb(9.411765%,43.921569%,68.235296%);fill-opacity:1;" d="M 106.625 44.875 L 111.375 44.875 L 111.375 49.625 L 106.625 49.625 Z M 106.625 44.875 "/>
<path style=" stroke:none;fill-rule:nonzero;fill:rgb(9.411765%,43.921569%,68.235296%);fill-opacity:1;" d="M 106.625 49.625 L 111.375 49.625 L 111.375 54.375 L 106.625 54.375 Z M 106.625 49.625 "/>
<path style=" stroke:none;fill-rule:nonzero;fill:rgb(9.411765%,43.921569%,68.235296%);fill-opacity:1;" d="M 106.625 54.375 L 111.375 54.375 L 111.375 59.125 L 106.625 59.125 Z M 106.625 54.375 "/>
<path style=" stroke:none;fill-rule:nonzero;fill:rgb(9.411765%,43.921569%,68.235296%);fill-opacity:1;" d="M 106.625 63.875 L 111.375 63.875 L 111.375 68.625 L 106.625 68.625 Z M 106.625 63.875 "/>
<path style=" stroke:none;fill-rule:nonzero;fill:rgb(9.411765%,43.921569%,68.235296%);fill-opacity:1;" d="M 106.625 68.625 L 111.375 68.625 L 111.375 73.375 L 106.625 73.375 Z M 106.625 68.625 "/>
<path style=" stroke:none;fill-rule:nonzero;fill:rgb(9.411765%,43.921569%,68.235296%);fill-opacity:1;" d="M 106.625 73.375 L 111.375 73.375 L 111.375 78.125 L 106.625 78.125 Z M 106.625 73.375 "/>
<path style=" stroke:none;fill-rule:nonzero;fill:rgb(9.411765%,43.921569%,68.235296%);fill-opacity:1;" d="M 106.625 97.125 L 111.375 97.125 L 111.375 101.875 L 106.625 101.875 Z M 106.625 97.125 "/>
<path style=" stroke:none;fill-rule:nonzero;fill:rgb(9.411765%,43.921569%,68.235296%);fill-opacity:1;" d="M 106.625 101.875 L 111.375 101.875 L 111.375 106.625 L 106.625 106.625 Z M 106.625 101.875 "/>
<path style=" stroke:none;fill-rule:nonzero;fill:rgb(9.411765%,43.921569%,68.235296%);fill-opacity:1;" d="M 106.625 120.875 L 111.375 120.875 L 111.375 125.625 L 106.625 125.625 Z M 106.625 120.875 "/>
<path style=" stroke:none;fill-rule:nonzero;fill:rgb(9.411765%,43.921569%,68.235296%);fill-opacity:1;" d="M 106.625 125.625 L 111.375 125.625 L 111.375 130.375 L 106.625 130.375 Z M 106.625 125.625 "/>
<path style=" stroke:none;fill-rule:nonzero;fill:rgb(9.411765%,43.921569%,68.235296%);fill-opacity:1;" d="M 106.625 135.125 L 111.375 135.125 L 111.375 139.875 L 106.625 139.875 Z M 106.625 135.125 "/>
<path style=" stroke:none;fill-rule:nonzero;fill:rgb(9.411765%,43.921569%,68.235296%);fill-opacity:1;" d="M 106.625 139.875 L 111.375 139.875 L 111.375 144.625 L 106.625 144.625 Z M 106.625 139.875 "/>
<path style=" stroke:none;fill-rule:nonzero;fill:rgb(9.411765%,43.921569%,68.235296%);fill-opacity:1;" d="M 111.375 44.875 L 116.125 44.875 L 116.125 49.625 L 111.375 49.625 Z M 111.375 44.875 "/>
<path style=" stroke:none;fill-rule:nonzero;fill:rgb(9.411765%,43.921569%,68.235296%);fill-opacity:1;" d="M 111.375 54.375 L 116.125 54.375 L 116.125 59.125 L 111.375 59.125 Z M 111.375 54.375 "/>
<path style=" stroke:none;fill-rule:nonzero;fill:rgb(9.411765%,43.921569%,68.235296%);fill-opacity:1;" d="M 111.375 63.875 L 116.125 63.875 L 116.125 68.625 L 111.375 68.625 Z M 111.375 63.875 "/>
<path style=" stroke:none;fill-rule:nonzero;fill:rgb(9.411765%,43.921569%,68.235296%);fill-opacity:1;" d="M 111.375 78.125 L 116.125 78.125 L 116.125 82.875 L 111.375 82.875 Z M 111.375 78.125 "/>
<path style=" stroke:none;fill-rule:nonzero;fill:rgb(9.411765%,43.921569%,68.235296%);fill-opacity:1;" d="M 111.375 92.375 L 116.125 92.375 L 116.125 97.125 L 111.375 97.125 Z M 111.375 92.375 "/>
<path style=" stroke:none;fill-rule:nonzero;fill:rgb(9.411765%,43.921569%,68.235296%);fill-opacity:1;" d="M 111.375 97.125 L 116.125 97.125 L 116.125 101.875 L 111.375 101.875 Z M 111.375 97.125 "/>
<path style=" stroke:none;fill-rule:nonzero;fill:rgb(9.411765%,43.921569%,68.235296%);fill-opacity:1;" d="M 111.375 101.875 L 116.125 101.875 L 116.125 106.625 L 111.375 106.625 Z M 111.375 101.875 "/>
<path style=" stroke:none;fill-rule:nonzero;fill:rgb(9.411765%,43.921569%,68.235296%);fill-opacity:1;" d="M 111.375 111.375 L 116.125 111.375 L 116.125 116.125 L 111.375 116.125 Z M 111.375 111.375 "/>
<path style=" stroke:none;fill-rule:nonzero;fill:rgb(9.411765%,43.921569%,68.235296%);fill-opacity:1;" d="M 111.375 120.875 L 116.125 120.875 L 116.125 125.625 L 111.375 125.625 Z M 111.375 120.875 "/>
<path style=" stroke:none;fill-rule:nonzero;fill:rgb(9.411765%,43.921569%,68.235296%);fill-opacity:1;" d="M 116.125 44.875 L 120.875 44.875 L 120.875 49.625 L 116.125 49.625 Z M 116.125 44.875 "/>
<path style=" stroke:none;fill-rule:nonzero;fill:rgb(9.411765%,43.921569%,68.235296%);fill-opacity:1;" d="M 116.125 54.375 L 120.875 54.375 L 120.875 59.125 L 116.125 59.125 Z M 116.125 54.375 "/>
<path style=" stroke:none;fill-rule:nonzero;fill:rgb(9.411765%,43.921569%,68.235296%);fill-opacity:1;" d="M 116.125 68.625 L 120.875 68.625 L 120.875 73.375 L 116.125 73.375 Z M 116.125 68.625 "/>
<path style=" stroke:none;fill-rule:nonzero;fill:rgb(9.411765%,43.921569%,68.235296%);fill-opacity:1;" d="M 116.125 73.375 L 120.875 73.375 L 120.875 78.125 L 116.125 78.125 Z M 116.125 73.375 "/>
<path style=" stroke:none;fill-rule:nonzero;fill:rgb(9.411765%,43.921569%,68.235296%);fill-opacity:1;" d="M 116.125 97.125 L 120.875 97.125 L 120.875 101.875 L 116.125 101.875 Z M 116.125 97.125 "/>
<path style=" stroke:none;fill-rule:nonzero;fill:rgb(9.411765%,43.921569%,68.235296%);fill-opacity:1;" d="M 116.125 101.875 L 120.875 101.875 L 120.875 106.625 L 116.125 106.625 Z M 116.125 101.875 "/>
<path style=" stroke:none;fill-rule:nonzero;fill:rgb(9.411765%,43.921569%,68.235296%);fill-opacity:1;" d="M 116.125 120.875 L 120.875 120.875 L 120.875 125.625 L 116.125 125.625 Z M 116.125 120.875 "/>
<path style=" stroke:none;fill-rule:nonzero;fill:rgb(9.411765%,43.921569%,68.235296%);fill-opacity:1;" d="M 116.125 125.625 L 120.875 125.625 L 120.875 130.375 L 116.125 130.375 Z M 116.125 125.625 "/>
<path style=" stroke:none;fill-rule:nonzero;fill:rgb(9.411765%,43.921569%,68.235296%);fill-opacity:1;" d="M 116.125 135.125 L 120.875 135.125 L 120.875 139.875 L 116.125 139.875 Z M 116.125 135.125 "/>
<path style=" stroke:none;fill-rule:nonzero;fill:rgb(9.411765%,43.921569%,68.235296%);fill-opacity:1;" d="M 116.125 139.875 L 120.875 139.875 L 120.875 144.625 L 116.125 144.625 Z M 116.125 139.875 "/>
<path style=" stroke:none;fill-rule:nonzero;fill:rgb(9.411765%,43.921569%,68.235296%);fill-opacity:1;" d="M 120.875 44.875 L 125.625 44.875 L 125.625 49.625 L 120.875 49.625 Z M 120.875 44.875 "/>
<path style=" stroke:none;fill-rule:nonzero;fill:rgb(9.411765%,43.921569%,68.235296%);fill-opacity:1;" d="M 120.875 49.625 L 125.625 49.625 L 125.625 54.375 L 120.875 54.375 Z M 120.875 49.625 "/>
<path style=" stroke:none;fill-rule:nonzero;fill:rgb(9.411765%,43.921569%,68.235296%);fill-opacity:1;" d="M 120.875 54.375 L 125.625 54.375 L 125.625 59.125 L 120.875 59.125 Z M 120.875 54.375 "/>
<path style=" stroke:none;fill-rule:nonzero;fill:rgb(9.411765%,43.921569%,68.235296%);fill-opacity:1;" d="M 120.875 59.125 L 125.625 59.125 L 125.625 63.875 L 120.875 63.875 Z M 120.875 59.125 "/>
<path style=" stroke:none;fill-rule:nonzero;fill:rgb(9.411765%,43.921569%,68.235296%);fill-opacity:1;" d="M 120.875 63.875 L 125.625 63.875 L 125.625 68.625 L 120.875 68.625 Z M 120.875 63.875 "/>
<path style=" stroke:none;fill-rule:nonzero;fill:rgb(9.411765%,43.921569%,68.235296%);fill-opacity:1;" d="M 120.875 68.625 L 125.625 68.625 L 125.625 73.375 L 120.875 73.375 Z M 120.875 68.625 "/>
<path style=" stroke:none;fill-rule:nonzero;fill:rgb(9.411765%,43.921569%,68.235296%);fill-opacity:1;" d="M 120.875 78.125 L 125.625 78.125 L 125.625 82.875 L 120.875 82.875 Z M 120.875 78.125 "/>
<path style=" stroke:none;fill-rule:nonzero;fill:rgb(9.411765%,43.921569%,68.235296%);fill-opacity:1;" d="M 120.875 92.375 L 125.625 92.375 L 125.625 97.125 L 120.875 97.125 Z M 120.875 92.375 "/>
<path style=" stroke:none;fill-rule:nonzero;fill:rgb(9.411765%,43.921569%,68.235296%);fill-opacity:1;" d="M 120.875 101.875 L 125.625 101.875 L 125.625 106.625 L 120.875 106.625 Z M 120.875 101.875 "/>
<path style=" stroke:none;fill-rule:nonzero;fill:rgb(9.411765%,43.921569%,68.235296%);fill-opacity:1;" d="M 120.875 106.625 L 125.625 106.625 L 125.625 111.375 L 120.875 111.375 Z M 120.875 106.625 "/>
<path style=" stroke:none;fill-rule:nonzero;fill:rgb(9.411765%,43.921569%,68.235296%);fill-opacity:1;" d="M 120.875 111.375 L 125.625 111.375 L 125.625 116.125 L 120.875 116.125 Z M 120.875 111.375 "/>
<path style=" stroke:none;fill-rule:nonzero;fill:rgb(9.411765%,43.921569%,68.235296%);fill-opacity:1;" d="M 120.875 116.125 L 125.625 116.125 L 125.625 120.875 L 120.875 120.875 Z M 120.875 116.125 "/>
<path style=" stroke:none;fill-rule:nonzero;fill:rgb(9.411765%,43.921569%,68.235296%);fill-opacity:1;" d="M 120.875 120.875 L 125.625 120.875 L 125.625 125.625 L 120.875 125.625 Z M 120.875 120.875 "/>
<path style=" stroke:none;fill-rule:nonzero;fill:rgb(9.411765%,43.921569%,68.235296%);fill-opacity:1;" d="M 120.875 125.625 L 125.625 125.625 L 125.625 130.375 L 120.875 130.375 Z M 120.875 125.625 "/>
<path style=" stroke:none;fill-rule:nonzero;fill:rgb(9.411765%,43.921569%,68.235296%);fill-opacity:1;" d="M 120.875 130.375 L 125.625 130.375 L 125.625 135.125 L 120.875 135.125 Z M 120.875 130.375 "/>
<path style=" stroke:none;fill-rule:nonzero;fill:rgb(9.411765%,43.921569%,68.235296%);fill-opacity:1;" d="M 120.875 139.875 L 125.625 139.875 L 125.625 144.625 L 120.875 144.625 Z M 120.875 139.875 "/>
<path style=" stroke:none;fill-rule:nonzero;fill:rgb(9.411765%,43.921569%,68.235296%);fill-opacity:1;" d="M 125.625 44.875 L 130.375 44.875 L 130.375 49.625 L 125.625 49.625 Z M 125.625 44.875 "/>
<path style=" stroke:none;fill-rule:nonzero;fill:rgb(9.411765%,43.921569%,68.235296%);fill-opacity:1;" d="M 125.625 54.375 L 130.375 54.375 L 130.375 59.125 L 125.625 59.125 Z M 125.625 54.375 "/>
<path style=" stroke:none;fill-rule:nonzero;fill:rgb(9.411765%,43.921569%,68.235296%);fill-opacity:1;" d="M 125.625 78.125 L 130.375 78.125 L 130.375 82.875 L 125.625 82.875 Z M 125.625 78.125 "/>
<path style=" stroke:none;fill-rule:nonzero;fill:rgb(9.411765%,43.921569%,68.235296%);fill-opacity:1;" d="M 125.625 82.875 L 130.375 82.875 L 130.375 87.625 L 125.625 87.625 Z M 125.625 82.875 "/>
<path style=" stroke:none;fill-rule:nonzero;fill:rgb(9.411765%,43.921569%,68.235296%);fill-opacity:1;" d="M 125.625 97.125 L 130.375 97.125 L 130.375 101.875 L 125.625 101.875 Z M 125.625 97.125 "/>
<path style=" stroke:none;fill-rule:nonzero;fill:rgb(9.411765%,43.921569%,68.235296%);fill-opacity:1;" d="M 125.625 101.875 L 130.375 101.875 L 130.375 106.625 L 125.625 106.625 Z M 125.625 101.875 "/>
<path style=" stroke:none;fill-rule:nonzero;fill:rgb(9.411765%,43.921569%,68.235296%);fill-opacity:1;" d="M 125.625 106.625 L 130.375 106.625 L 130.375 111.375 L 125.625 111.375 Z M 125.625 106.625 "/>
<path style=" stroke:none;fill-rule:nonzero;fill:rgb(9.411765%,43.921569%,68.235296%);fill-opacity:1;" d="M 125.625 116.125 L 130.375 116.125 L 130.375 120.875 L 125.625 120.875 Z M 125.625 116.125 "/>
<path style=" stroke:none;fill-rule:nonzero;fill:rgb(9.411765%,43.921569%,68.235296%);fill-opacity:1;" d="M 125.625 125.625 L 130.375 125.625 L 130.375 130.375 L 125.625 130.375 Z M 125.625 125.625 "/>
<path style=" stroke:none;fill-rule:nonzero;fill:rgb(9.411765%,43.921569%,68.235296%);fill-opacity:1;" d="M 125.625 130.375 L 130.375 130.375 L 130.375 135.125 L 125.625 135.125 Z M 125.625 130.375 "/>
<path style=" stroke:none;fill-rule:nonzero;fill:rgb(9.411765%,43.921569%,68.235296%);fill-opacity:1;" d="M 130.375 44.875 L 135.125 44.875 L 135.125 49.625 L 130.375 49.625 Z M 130.375 44.875 "/>
<path style=" stroke:none;fill-rule:nonzero;fill:rgb(9.411765%,43.921569%,68.235296%);fill-opacity:1;" d="M 130.375 49.625 L 135.125 49.625 L 135.125 54.375 L 130.375 54.375 Z M 130.375 49.625 "/>
<path style=" stroke:none;fill-rule:nonzero;fill:rgb(9.411765%,43.921569%,68.235296%);fill-opacity:1;" d="M 130.375 54.375 L 135.125 54.375 L 135.125 59.125 L 130.375 59.125 Z M 130.375 54.375 "/>
<path style=" stroke:none;fill-rule:nonzero;fill:rgb(9.411765%,43.921569%,68.235296%);fill-opacity:1;" d="M 130.375 59.125 L 135.125 59.125 L 135.125 63.875 L 130.375 63.875 Z M 130.375 59.125 "/>
<path style=" stroke:none;fill-rule:nonzero;fill:rgb(9.411765%,43.921569%,68.235296%);fill-opacity:1;" d="M 130.375 92.375 L 135.125 92.375 L 135.125 97.125 L 130.375 97.125 Z M 130.375 92.375 "/>
<path style=" stroke:none;fill-rule:nonzero;fill:rgb(9.411765%,43.921569%,68.235296%);fill-opacity:1;" d="M 130.375 97.125 L 135.125 97.125 L 135.125 101.875 L 130.375 101.875 Z M 130.375 97.125 "/>
<path style=" stroke:none;fill-rule:nonzero;fill:rgb(9.411765%,43.921569%,68.235296%);fill-opacity:1;" d="M 130.375 101.875 L 135.125 101.875 L 135.125 106.625 L 130.375 106.625 Z M 130.375 101.875 "/>
<path style=" stroke:none;fill-rule:nonzero;fill:rgb(9.411765%,43.921569%,68.235296%);fill-opacity:1;" d="M 130.375 106.625 L 135.125 106.625 L 135.125 111.375 L 130.375 111.375 Z M 130.375 106.625 "/>
<path style=" stroke:none;fill-rule:nonzero;fill:rgb(9.411765%,43.921569%,68.235296%);fill-opacity:1;" d="M 130.375 111.375 L 135.125 111.375 L 135.125 116.125 L 130.375 116.125 Z M 130.375 111.375 "/>
<path style=" stroke:none;fill-rule:nonzero;fill:rgb(9.411765%,43.921569%,68.235296%);fill-opacity:1;" d="M 130.375 116.125 L 135.125 116.125 L 135.125 120.875 L 130.375 120.875 Z M 130.375 116.125 "/>
<path style=" stroke:none;fill-rule:nonzero;fill:rgb(9.411765%,43.921569%,68.235296%);fill-opacity:1;" d="M 130.375 120.875 L 135.125 120.875 L 135.125 125.625 L 130.375 125.625 Z M 130.375 120.875 "/>
<path style=" stroke:none;fill-rule:nonzero;fill:rgb(9.411765%,43.921569%,68.235296%);fill-opacity:1;" d="M 130.375 125.625 L 135.125 125.625 L 135.125 130.375 L 130.375 130.375 Z M 130.375 125.625 "/>
<path style=" stroke:none;fill-rule:nonzero;fill:rgb(9.411765%,43.921569%,68.235296%);fill-opacity:1;" d="M 130.375 130.375 L 135.125 130.375 L 135.125 135.125 L 130.375 135.125 Z M 130.375 130.375 "/>
<path style=" stroke:none;fill-rule:nonzero;fill:rgb(9.411765%,43.921569%,68.235296%);fill-opacity:1;" d="M 130.375 135.125 L 135.125 135.125 L 135.125 139.875 L 130.375 139.875 Z M 130.375 135.125 "/>
<path style=" stroke:none;fill-rule:nonzero;fill:rgb(9.411765%,43.921569%,68.235296%);fill-opacity:1;" d="M 135.125 44.875 L 139.875 44.875 L 139.875 49.625 L 135.125 49.625 Z M 135.125 44.875 "/>
<path style=" stroke:none;fill-rule:nonzero;fill:rgb(9.411765%,43.921569%,68.235296%);fill-opacity:1;" d="M 135.125 54.375 L 139.875 54.375 L 139.875 59.125 L 135.125 59.125 Z M 135.125 54.375 "/>
<path style=" stroke:none;fill-rule:nonzero;fill:rgb(9.411765%,43.921569%,68.235296%);fill-opacity:1;" d="M 135.125 63.875 L 139.875 63.875 L 139.875 68.625 L 135.125 68.625 Z M 135.125 63.875 "/>
<path style=" stroke:none;fill-rule:nonzero;fill:rgb(9.411765%,43.921569%,68.235296%);fill-opacity:1;" d="M 135.125 68.625 L 139.875 68.625 L 139.875 73.375 L 135.125 73.375 Z M 135.125 68.625 "/>
<path style=" stroke:none;fill-rule:nonzero;fill:rgb(9.411765%,43.921569%,68.235296%);fill-opacity:1;" d="M 135.125 82.875 L 139.875 82.875 L 139.875 87.625 L 135.125 87.625 Z M 135.125 82.875 "/>
<path style=" stroke:none;fill-rule:nonzero;fill:rgb(9.411765%,43.921569%,68.235296%);fill-opacity:1;" d="M 135.125 97.125 L 139.875 97.125 L 139.875 101.875 L 135.125 101.875 Z M 135.125 97.125 "/>
<path style=" stroke:none;fill-rule:nonzero;fill:rgb(9.411765%,43.921569%,68.235296%);fill-opacity:1;" d="M 135.125 101.875 L 139.875 101.875 L 139.875 106.625 L 135.125 106.625 Z M 135.125 101.875 "/>
<path style=" stroke:none;fill-rule:nonzero;fill:rgb(9.411765%,43.921569%,68.235296%);fill-opacity:1;" d="M 135.125 120.875 L 139.875 120.875 L 139.875 125.625 L 135.125 125.625 Z M 135.125 120.875 "/>
<path style=" stroke:none;fill-rule:nonzero;fill:rgb(9.411765%,43.921569%,68.235296%);fill-opacity:1;" d="M 135.125 125.625 L 139.875 125.625 L 139.875 130.375 L 135.125 130.375 Z M 135.125 125.625 "/>
<path style=" stroke:none;fill-rule:nonzero;fill:rgb(9.411765%,43.921569%,68.235296%);fill-opacity:1;" d="M 135.125 135.125 L 139.875 135.125 L 139.875 139.875 L 135.125 139.875 Z M 135.125 135.125 "/>
<path style=" stroke:none;fill-rule:nonzero;fill:rgb(9.411765%,43.921569%,68.235296%);fill-opacity:1;" d="M 139.875 49.625 L 144.625 49.625 L 144.625 54.375 L 139.875 54.375 Z M 139.875 49.625 "/>
<path style=" stroke:none;fill-rule:nonzero;fill:rgb(9.411765%,43.921569%,68.235296%);fill-opacity:1;" d="M 139.875 63.875 L 144.625 63.875 L 144.625 68.625 L 139.875 68.625 Z M 139.875 63.875 "/>
<path style=" stroke:none;fill-rule:nonzero;fill:rgb(9.411765%,43.921569%,68.235296%);fill-opacity:1;" d="M 139.875 68.625 L 144.625 68.625 L 144.625 73.375 L 139.875 73.375 Z M 139.875 68.625 "/>
<path style=" stroke:none;fill-rule:nonzero;fill:rgb(9.411765%,43.921569%,68.235296%);fill-opacity:1;" d="M 139.875 82.875 L 144.625 82.875 L 144.625 87.625 L 139.875 87.625 Z M 139.875 82.875 "/>
<path style=" stroke:none;fill-rule:nonzero;fill:rgb(9.411765%,43.921569%,68.235296%);fill-opacity:1;" d="M 139.875 87.625 L 144.625 87.625 L 144.625 92.375 L 139.875 92.375 Z M 139.875 87.625 "/>
<path style=" stroke:none;fill-rule:nonzero;fill:rgb(9.411765%,43.921569%,68.235296%);fill-opacity:1;" d="M 139.875 97.125 L 144.625 97.125 L 144.625 101.875 L 139.875 101.875 Z M 139.875 97.125 "/>
<path style=" stroke:none;fill-rule:nonzero;fill:rgb(9.411765%,43.921569%,68.235296%);fill-opacity:1;" d="M 139.875 106.625 L 144.625 106.625 L 144.625 111.375 L 139.875 111.375 Z M 139.875 106.625 "/>
<path style=" stroke:none;fill-rule:nonzero;fill:rgb(9.411765%,43.921569%,68.235296%);fill-opacity:1;" d="M 139.875 120.875 L 144.625 120.875 L 144.625 125.625 L 139.875 125.625 Z M 139.875 120.875 "/>
<path style=" stroke:none;fill-rule:nonzero;fill:rgb(9.411765%,43.921569%,68.235296%);fill-opacity:1;" d="M 139.875 130.375 L 144.625 130.375 L 144.625 135.125 L 139.875 135.125 Z M 139.875 130.375 "/>
<path style=" stroke:none;fill-rule:nonzero;fill:rgb(9.411765%,43.921569%,68.235296%);fill-opacity:1;" d="M 6.875 6.875 L 6.875 40.125 L 40.125 40.125 L 40.125 6.875 Z M 11.625 11.625 L 35.375 11.625 L 35.375 35.375 L 11.625 35.375 Z M 11.625 11.625 "/>
<path style=" stroke:none;fill-rule:nonzero;fill:rgb(9.411765%,43.921569%,68.235296%);fill-opacity:1;" d="M 16.375 16.375 L 30.625 16.375 L 30.625 30.625 L 16.375 30.625 Z M 16.375 16.375 "/>
<path style=" stroke:none;fill-rule:nonzero;fill:rgb(9.411765%,43.921569%,68.235296%);fill-opacity:1;" d="M 144.625 6.875 L 111.375 6.875 L 111.375 40.125 L 144.625 40.125 Z M 139.875 11.625 L 139.875 35.375 L 116.125 35.375 L 116.125 11.625 Z M 139.875 11.625 "/>
<path style=" stroke:none;fill-rule:nonzero;fill:rgb(9.411765%,43.921569%,68.235296%);fill-opacity:1;" d="M 135.125 16.375 L 135.125 30.625 L 120.875 30.625 L 120.875 16.375 Z M 135.125 16.375 "/>
<path style=" stroke:none;fill-rule:nonzero;fill:rgb(9.411765%,43.921569%,68.235296%);fill-opacity:1;" d="M 6.875 144.625 L 40.125 144.625 L 40.125 111.375 L 6.875 111.375 Z M 11.625 139.875 L 11.625 116.125 L 35.375 116.125 L 35.375 139.875 Z M 11.625 139.875 "/>
<path style=" stroke:none;fill-rule:nonzero;fill:rgb(9.411765%,43.921569%,68.235296%);fill-opacity:1;" d="M 16.375 135.125 L 16.375 120.875 L 30.625 120.875 L 30.625 135.125 Z M 16.375 135.125 "/>
</g>
</svg>
